<svg viewBox="0 0 200 200" xmlns="http://www.w3.org/2000/svg">
  <defs>
    <!-- Gradiente principal para o círculo central -->
    <radialGradient id="centralGradient" cx="50%" cy="50%" r="50%">
      <stop offset="0%" style="stop-color:#4F46E5;stop-opacity:1" />
      <stop offset="100%" style="stop-color:#7C3AED;stop-opacity:1" />
    </radialGradient>
    
    <!-- Gradientes variados para diferentes satélites -->
    <radialGradient id="satellite1" cx="50%" cy="50%" r="50%">
      <stop offset="0%" style="stop-color:#06B6D4;stop-opacity:0.9" />
      <stop offset="100%" style="stop-color:#3B82F6;stop-opacity:0.7" />
    </radialGradient>
    
    <radialGradient id="satellite2" cx="50%" cy="50%" r="50%">
      <stop offset="0%" style="stop-color:#10B981;stop-opacity:0.9" />
      <stop offset="100%" style="stop-color:#059669;stop-opacity:0.7" />
    </radialGradient>
    
    <radialGradient id="satellite3" cx="50%" cy="50%" r="50%">
      <stop offset="0%" style="stop-color:#F59E0B;stop-opacity:0.9" />
      <stop offset="100%" style="stop-color:#D97706;stop-opacity:0.7" />
    </radialGradient>
    
    <radialGradient id="satellite4" cx="50%" cy="50%" r="50%">
      <stop offset="0%" style="stop-color:#EF4444;stop-opacity:0.9" />
      <stop offset="100%" style="stop-color:#DC2626;stop-opacity:0.7" />
    </radialGradient>
    
    <radialGradient id="satellite5" cx="50%" cy="50%" r="50%">
      <stop offset="0%" style="stop-color:#8B5CF6;stop-opacity:0.9" />
      <stop offset="100%" style="stop-color:#7C3AED;stop-opacity:0.7" />
    </radialGradient>
    
    <!-- Trajetórias elípticas com diferentes excentricidades -->
    <!-- Órbita 1: Elipse com razão 3:2 harmônica (12s) -->
    <path id="orbit1" d="M 160,100 A 45,30 0 0,1 100,130 A 45,30 0 0,1 40,100 A 45,30 0 0,1 100,70 A 45,30 0 0,1 160,100 Z" 
          fill="none" stroke="rgba(79,70,229,0.1)" stroke-width="1"/>
    
    <!-- Órbita 2: Elipse com excentricidade diferente (18s) - Aproximada -->
    <path id="orbit2" d="M 155,100 A 40,20 45 0,1 120,140 A 40,20 45 0,1 70,100 A 40,20 45 0,1 120,60 A 40,20 45 0,1 155,100 Z" 
          fill="none" stroke="rgba(59,130,246,0.1)" stroke-width="1"/>
    
    <!-- Órbita 3: Elipse quase circular (8s) -->
    <path id="orbit3" d="M 130,100 A 22,30 0 0,0 100,130 A 22,30 0 0,0 70,100 A 22,30 0 0,0 100,70 A 22,30 0 0,0 130,100 Z" 
          fill="none" stroke="rgba(16,185,129,0.1)" stroke-width="1"/>
    
    <!-- Órbita 4: Elipse alongada (24s) - Aproximada -->
    <path id="orbit4" d="M 165,100 A 50,18 30 0,0 115,150 A 50,18 30 0,0 85,100 A 50,18 30 0,0 115,50 A 50,18 30 0,0 165,100 Z" 
          fill="none" stroke="rgba(245,158,11,0.1)" stroke-width="1"/>
    
    <!-- Órbita 5: Elipse com inclinação (15s) - Aproximada -->
    <path id="orbit5" d="M 140,100 A 30,18 60 0,1 100,130 A 30,18 60 0,1 60,100 A 30,18 60 0,1 100,70 A 30,18 60 0,1 140,100 Z" 
          fill="none" stroke="rgba(139,92,246,0.1)" stroke-width="1"/>
    
    <!-- Órbita 6: Elipse interna rápida (6s) -->
    <path id="orbit6" d="M 125,100 A 20,15 0 0,1 100,115 A 20,15 0 0,1 75,100 A 20,15 0 0,1 100,85 A 20,15 0 0,1 125,100 Z" 
          fill="none" stroke="rgba(239,68,68,0.1)" stroke-width="1"/>
  </defs>
  
  <!-- Círculo central com pulsação sincronizada -->
  <circle cx="100" cy="100" r="20" fill="url(#centralGradient)" stroke="#FFFFFF" stroke-width="2" opacity="0.95">
    <!-- Pulsação baseada na frequência fundamental -->
    <animate attributeName="r" values="20;24;20;22;20" dur="12s" repeatCount="indefinite"/>
    <animate attributeName="opacity" values="0.95;1;0.95;0.98;0.95" dur="12s" repeatCount="indefinite"/>
  </circle>
  
  <!-- Satélite 1: Órbita harmônica fundamental (12s - frequência base) -->
  <circle r="8" fill="url(#satellite1)" opacity="0.9">
    <animateMotion dur="12s" repeatCount="indefinite" path="M 160,100 A 45,30 0 0,1 100,130 A 45,30 0 0,1 40,100 A 45,30 0 0,1 100,70 A 45,30 0 0,1 160,100 Z"/>
    <animate attributeName="opacity" values="0.9;0.6;0.9" dur="4s" repeatCount="indefinite"/>
    <animate attributeName="r" values="8;10;8" dur="6s" repeatCount="indefinite"/>
  </circle>
  
  <!-- Satélite 2: Segunda harmônica (18s = 12s × 3/2) - Aproximado -->
  <circle r="7" fill="url(#satellite2)" opacity="0.85">
    <animateMotion dur="18s" repeatCount="indefinite" path="M 155,100 A 40,20 45 0,1 120,140 A 40,20 45 0,1 70,100 A 40,20 45 0,1 120,60 A 40,20 45 0,1 155,100 Z"/>
    <animate attributeName="opacity" values="0.85;0.5;0.85" dur="3s" repeatCount="indefinite"/>
    <animate attributeName="r" values="7;9;7" dur="9s" repeatCount="indefinite"/>
  </circle>
  
  <!-- Satélite 3: Terceira harmônica (8s = 12s × 2/3) - Aproximado -->
  <circle r="6" fill="url(#satellite3)" opacity="0.8">
    <animateMotion dur="8s" repeatCount="indefinite" path="M 130,100 A 22,30 0 0,0 100,130 A 22,30 0 0,0 70,100 A 22,30 0 0,0 100,70 A 22,30 0 0,0 130,100 Z"/>
    <animate attributeName="opacity" values="0.8;0.4;0.8" dur="2.67s" repeatCount="indefinite"/>
    <animate attributeName="r" values="6;8;6" dur="4s" repeatCount="indefinite"/>
  </circle>
  
  <!-- Satélite 4: Quarta harmônica (24s = 12s × 2) - Aproximado -->
  <circle r="9" fill="url(#satellite4)" opacity="0.9">
    <animateMotion dur="24s" repeatCount="indefinite" path="M 165,100 A 50,18 30 0,0 115,150 A 50,18 30 0,0 85,100 A 50,18 30 0,0 115,50 A 50,18 30 0,0 165,100 Z"/>
    <animate attributeName="opacity" values="0.9;0.6;0.9" dur="8s" repeatCount="indefinite"/>
    <animate attributeName="r" values="9;11;9" dur="12s" repeatCount="indefinite"/>
  </circle>
  
  <!-- Satélite 5: Quinta harmônica (15s = 12s × 5/4) - Aproximado -->
  <circle r="5" fill="url(#satellite5)" opacity="0.75">
    <animateMotion dur="15s" repeatCount="indefinite" path="M 140,100 A 30,18 60 0,1 100,130 A 30,18 60 0,1 60,100 A 30,18 60 0,1 100,70 A 30,18 60 0,1 140,100 Z"/>
    <animate attributeName="opacity" values="0.75;0.4;0.75" dur="5s" repeatCount="indefinite"/>
    <animate attributeName="r" values="5;7;5" dur="7.5s" repeatCount="indefinite"/>
  </circle>
  
  <!-- Satélite 6: Sexta harmônica (6s = 12s × 1/2) - órbita interna rápida -->
  <circle r="4" fill="url(#satellite1)" opacity="0.7">
    <animateMotion dur="6s" repeatCount="indefinite" path="M 125,100 A 20,15 0 0,1 100,115 A 20,15 0 0,1 75,100 A 20,15 0 0,1 100,85 A 20,15 0 0,1 125,100 Z"/>
    <animate attributeName="opacity" values="0.7;0.3;0.7" dur="2s" repeatCount="indefinite"/>
    <animate attributeName="r" values="4;6;4" dur="3s" repeatCount="indefinite"/>
  </circle>
  
  <!-- Rastros de movimento sutis -->
  <g opacity="0.15">
    <use href="#orbit1"/>
    <use href="#orbit2"/>
    <use href="#orbit3"/>
    <use href="#orbit4"/>
    <use href="#orbit5"/>
    <use href="#orbit6"/>
  </g>
  
  <!-- Linhas de conexão que aparecem sincronizadamente -->
  <g opacity="0.2">
    <line x1="100" y1="100" x2="155" y2="100" stroke="#4F46E5" stroke-width="0.5">
      <animate attributeName="opacity" values="0;0.4;0" dur="12s" repeatCount="indefinite"/>
      <animateTransform attributeName="transform" type="rotate" values="0 100 100;360 100 100" dur="12s" repeatCount="indefinite"/>
    </line>
    <line x1="100" y1="100" x2="165" y2="100" stroke="#3B82F6" stroke-width="0.5">
      <animate attributeName="opacity" values="0;0.3;0" dur="18s" repeatCount="indefinite"/>
      <animateTransform attributeName="transform" type="rotate" values="0 100 100;360 100 100" dur="18s" repeatCount="indefinite"/>
    </line>
  </g>
</svg>